# xmcd
#
# Track frame offsets:
#	182
#	18607
#	38045
#	49827
#	67370
#	77657
#	99835
#	114677
#	130640
#	143847
#	160862
#	178917
#	190830
#	207060
#
# Disc length: 3047 seconds
#
# Revision: 2
# Processed by: cddbd v1.5.2PL0 Copyright (c) Steve Scherf et al.
# Submitted via: EasyCDDAExtractor 16.0.6.1
#
DISCID=c10be50e
DTITLE=Desconocido - JB-076 Ragtime Favourites
DYEAR=1900
DGENRE=Blues
TTITLE0=The Entertainer
TTITLE1=Heliotrope Bouqet
TTITLE2=Dill Pickles Rag
TTITLE3=Fig Leaf Rag
TTITLE4=Absinthe House Rag
TTITLE5=Snake Rag
TTITLE6=Maple Leaf Rag
TTITLE7=Grace and Beauty
TTITLE8=Borsolino Theme
TTITLE9=Ragging at the Rumbo
TTITLE10=The Pearls
TTITLE11=Le Parrin
TTITLE12=Original Rags
TTITLE13=Frog-I-More Rag
EXTD=
EXTT0=
EXTT1=
EXTT2=
EXTT3=
EXTT4=
EXTT5=
EXTT6=
EXTT7=
EXTT8=
EXTT9=
EXTT10=
EXTT11=
EXTT12=
EXTT13=
PLAYORDER=
